<svg xmlns="http://www.w3.org/2000/svg" data-name="Layer 1" viewBox="0 0 128 128" id="portal"><path d="M126.828 53 117 43.172A3.973 3.973 0 0 0 114.171 42H70a6.007 6.007 0 0 0-6 6v74a6.007 6.007 0 0 0 6 6h52a6.007 6.007 0 0 0 6-6V55.828A3.973 3.973 0 0 0 126.828 53ZM116 47.828 122.172 54H116ZM124 122a2.002 2.002 0 0 1-2 2H70a2.002 2.002 0 0 1-2-2V48a2.002 2.002 0 0 1 2-2h42v10a2 2 0 0 0 2 2h10Z"></path><path d="M116 114H76a2 2 0 0 0 0 4h40a2 2 0 0 0 0-4zm0-10H76a2 2 0 0 0 0 4h40a2 2 0 0 0 0-4zm0-10H76a2 2 0 0 0 0 4h40a2 2 0 0 0 0-4zm0-10H76a2 2 0 0 0 0 4h40a2 2 0 0 0 0-4zm0-10H76a2 2 0 0 0 0 4h40a2 2 0 0 0 0-4zm-42-8a2 2 0 0 0 2 2h40a2 2 0 0 0 0-4H76a2 2 0 0 0-2 2zM26.873 53H53V33.285a131.493 131.493 0 0 1-23.194-2.344A95.188 95.188 0 0 0 26.873 53zM57 1.151v28.134a127.696 127.696 0 0 0 22.092-2.2C74.479 12.494 66.363 2.42 57 1.152zm-4 0C43.637 2.42 35.521 12.493 30.908 27.086A127.696 127.696 0 0 0 53 29.285zm4 79.564v28.134a15.63 15.63 0 0 0 3-.738V80.793q-1.495-.055-3-.078zm-30.047 3.04a89.696 89.696 0 0 0-15.371 4.947 55.093 55.093 0 0 0 30.823 19.826c-6.59-4.935-12.004-13.668-15.452-24.773zM57 57v19.715q1.505.022 3 .075V57zM29.806 79.06A131.493 131.493 0 0 1 53 76.714V57H26.873a95.188 95.188 0 0 0 2.933 22.06zM57 33.284V53h3v-5a10.011 10.011 0 0 1 10-10h11.709a86.968 86.968 0 0 0-1.515-7.06A131.493 131.493 0 0 1 57 33.286zM22.873 57H.077c-.009 0-.017-.003-.026-.003a54.65 54.65 0 0 0 9.132 28.385 92.474 92.474 0 0 1 16.676-5.476A99.475 99.475 0 0 1 22.873 57zm4.08-30.755C30.401 15.14 35.816 6.407 42.405 1.472a55.093 55.093 0 0 0-30.823 19.826 89.696 89.696 0 0 0 15.371 4.947zm-17.77-1.627A54.65 54.65 0 0 0 .051 53.003c.009 0 .017-.003.026-.003h22.796a99.475 99.475 0 0 1 2.986-22.906 92.474 92.474 0 0 1-16.676-5.476zM53 108.848V80.716a127.696 127.696 0 0 0-22.092 2.2C35.521 97.506 43.637 107.58 53 108.848zm30.047-82.603a89.696 89.696 0 0 0 15.371-4.947A55.087 55.087 0 0 0 67.582 1.462c6.595 4.933 12.015 13.67 15.465 24.783zm1.094 3.849A90.463 90.463 0 0 1 85.793 38h21.505a54.856 54.856 0 0 0-6.486-13.38 92.486 92.486 0 0 1-16.67 5.474z"></path></svg>